<svg xmlns="http://www.w3.org/2000/svg" xmlns:xlink="http://www.w3.org/1999/xlink" height="466.667" width="2546.667" xml:space="preserve"><defs><linearGradient id="a" spreadMethod="pad" gradientTransform="scale(293.84613 -293.84613) rotate(48.417 4.452 -1.427)" gradientUnits="userSpaceOnUse" y2=".009" x2=".792" y1="0" x1="0"><stop offset="0" style="stop-opacity:1;stop-color:#56ccf2"/><stop offset="1" style="stop-opacity:1;stop-color:#2f80ed"/></linearGradient><linearGradient xlink:href="#a" id="d" spreadMethod="pad" gradientTransform="scale(293.84613 -293.84613) rotate(48.417 4.853 -1.246)" gradientUnits="userSpaceOnUse" y2=".003" x2=".878" y1="0" x1="0"><stop offset="0" style="stop-opacity:1;stop-color:#56ccf2"/><stop offset="1" style="stop-opacity:1;stop-color:#2f80ed"/></linearGradient><linearGradient xlink:href="#a" id="c" gradientUnits="userSpaceOnUse" gradientTransform="scale(293.84613 -293.84613) rotate(48.417 4.452 -1.427)" x1="0" y1="0" x2=".792" y2=".009" spreadMethod="pad"/><clipPath id="b" clipPathUnits="userSpaceOnUse"><path d="M0 2000h2000V0H0Z"/></clipPath></defs><g style="fill:#686868;fill-opacity:1"><path style="fill:#686868;fill-opacity:1;fill-rule:nonzero;stroke:none" d="M0 0v-15.883h-49.15V-150.24h-17.17v134.357h-48.937V0Z" transform="matrix(1.33333 0 0 -1.33333 649.302 133.03)"/></g><g style="fill-opacity:1;fill:#686868"><path style="fill:#686868;fill-opacity:1;fill-rule:nonzero;stroke:none" d="m0 0-34.127 77.266L-67.823 0Zm6.867-15.883h-81.772l-16.742-38.418h-18.243l67.394 150.24h17.813l67.179-150.24H23.823Z" transform="matrix(1.33333 0 0 -1.33333 795.256 260.949)"/></g><g style="fill:#686868;fill-opacity:1" clip-path="url(#b)" transform="matrix(1.33333 0 0 -1.33333 -60 1566.666)"><g style="fill:#686868;fill-opacity:1"><path style="fill:#686868;fill-opacity:1;fill-rule:nonzero;stroke:none" d="M0 0c0 16.741-14.165 26.613-38.633 26.399H-83.92v-53.442h45.287C-14.165-27.258 0-17.386 0 0m-6.653 67.179c0 15.453-11.805 24.253-31.98 24.253H-83.92v-49.15h45.287c20.175 0 31.98 9.014 31.98 24.897m17.599 2.575c0-17.599-10.516-30.262-27.901-33.911 21.678-3.219 34.34-17.385 34.34-37.989 0-25.541-20.175-40.78-54.301-40.78h-64.174v150.24h63.316c30.262 0 48.72-13.95 48.72-37.56" transform="translate(819.372 967.913)"/></g><g style="fill:#686868;fill-opacity:1"><path style="fill:#686868;fill-opacity:1;fill-rule:nonzero;stroke:none" d="M0 0v-15.883h-78.34v-53.872h70.184v-15.668H-78.34v-64.817h-17.171V0Z" transform="translate(978.201 1075.227)"/></g><g style="fill:#686868;fill-opacity:1"><path style="fill:#686868;fill-opacity:1;fill-rule:nonzero;stroke:none" d="M0 0v-134.357h65.892v-15.883h-83.063V0Z" transform="translate(1031.432 1075.227)"/></g><g style="fill:#686868;fill-opacity:1"><path style="fill:#686868;fill-opacity:1;fill-rule:nonzero;stroke:none" d="M0 0c0-33.268 27.902-60.096 61.384-60.096 33.483 0 60.955 26.828 60.955 60.096 0 33.267-27.472 59.667-60.955 59.667C27.902 59.667 0 33.267 0 0m139.937 0c0-42.282-34.768-75.764-78.553-75.764-43.999 0-78.768 33.482-78.768 75.764s34.769 75.549 78.768 75.549c43.785 0 78.553-33.267 78.553-75.549" transform="translate(1139.179 1000.107)"/></g><g style="fill:#686868;fill-opacity:1"><path style="fill:#686868;fill-opacity:1;fill-rule:nonzero;stroke:none" d="m0 0-34.125 77.266L-67.822 0Zm6.869-15.883h-81.773l-16.742-38.418h-18.244l67.394 150.24h17.814l67.179-150.24H23.825Z" transform="translate(1405.537 979.288)"/></g><g style="fill:#686868;fill-opacity:1"><path style="fill:#686868;fill-opacity:1;fill-rule:nonzero;stroke:none" d="M0 0v-15.883h-49.15V-150.24h-17.171v134.357h-48.935V0Z" transform="translate(1563.08 1075.227)"/></g><g style="fill:#686868;fill-opacity:1"><path style="fill:#686868;fill-opacity:1;fill-rule:nonzero;stroke:none" d="M0 0v-15.883h-84.778V-66.32h75.764v-15.668h-75.764v-52.369H2.791v-15.883h-104.74V0Z" transform="translate(1700.66 1075.227)"/></g><g style="fill:#686868;fill-opacity:1"><path style="fill:#686868;fill-opacity:1;fill-rule:nonzero;stroke:none" d="M0 0c27.257 0 42.71 12.233 42.71 35.842 0 22.966-15.453 34.985-42.71 34.985h-39.921V0Zm41.208-63.53L9.658-15.454c-3.006-.214-6.224-.429-9.658-.429h-39.921V-63.53h-17.171V86.71H0c37.561 0 59.236-18.458 59.236-50.438 0-24.682-12.232-41.638-33.91-48.506L60.739-63.53Z" transform="translate(1806.26 988.518)"/></g></g><path style="fill:url(#c);stroke:none" d="M133 1099.411c0-31.547 25.573-57.12 57.12-57.12h13.731v-84.582c0-31.547 25.573-57.12 57.119-57.12v141.702c0 31.547-25.572 57.12-57.119 57.12z" transform="matrix(1.33333 0 0 -1.33333 -60 1566.666)"/><path style="fill:url(#d);fill-opacity:1;stroke:none" d="M260.056 1099.411c0-31.547 25.572-57.12 57.12-57.12h13.731v57.12z" transform="matrix(1.33333 0 0 -1.33333 -60 1566.666)"/></svg>